<svg width="22" height="22" viewBox="0 0 22 22" fill="none" xmlns="http://www.w3.org/2000/svg">
<path d="M14.9286 6.2857C14.4948 6.2857 14.1428 5.9337 14.1428 5.49998V3.14284H7.85713V5.49998C7.85713 5.9337 7.50513 6.2857 7.07142 6.2857C6.63771 6.2857 6.28571 5.9337 6.28571 5.49998V2.35713C6.28571 1.92341 6.63771 1.57141 7.07142 1.57141H14.9286C15.3623 1.57141 15.7143 1.92341 15.7143 2.35713V5.49998C15.7143 5.9337 15.3623 6.2857 14.9286 6.2857Z" fill="#7A7A9D"/>
<path d="M20.4286 4.71423H1.57143C0.704 4.71423 0 5.41823 0 6.28566V18.8571C0 19.7245 0.704 20.4285 1.57143 20.4285H20.4286C21.296 20.4285 22 19.7245 22 18.8571V6.28566C22 5.41823 21.296 4.71423 20.4286 4.71423Z" fill="#137CDF"/>
</svg>
