<svg width="20" height="22" viewBox="0 0 20 22" fill="none" xmlns="http://www.w3.org/2000/svg">
<path d="M17.7733 4.41467C17.6074 4.41467 17.4424 4.356 17.3104 4.235C15.2873 2.39067 12.6913 1.375 10 1.375C7.30866 1.375 4.71267 2.39067 2.68959 4.23592C2.40817 4.49167 1.97367 4.47058 1.71792 4.191C1.46217 3.9105 1.48234 3.47508 1.76284 3.21933C4.04075 1.14308 6.96583 0 10 0C13.0342 0 15.9592 1.14308 18.2372 3.21933C18.5177 3.47508 18.5378 3.90958 18.2821 4.191C18.1464 4.3395 17.9603 4.41467 17.7733 4.41467Z" fill="#7A7A9D"/>
<path d="M18.9375 8.90732C18.7166 8.90732 18.4984 8.80099 18.3664 8.60299C16.4579 5.76132 13.3302 4.06457 9.99999 4.06457C6.66974 4.06457 3.54208 5.76132 1.63358 8.60299C1.42183 8.91924 0.993742 9.00357 0.679325 8.79091C0.363992 8.57916 0.279659 8.15199 0.491409 7.83666C2.65566 4.61457 6.21049 2.69049 9.99999 2.69049C13.7895 2.69049 17.3443 4.61457 19.5086 7.83757C19.7203 8.15291 19.6369 8.58007 19.3207 8.79182C19.2033 8.86974 19.0704 8.90732 18.9375 8.90732Z" fill="#137CDF"/>
<path d="M7.82841 22C7.6515 22 7.47458 21.9322 7.33983 21.7965C7.1895 21.6453 3.66675 18.0492 3.66675 14.587C3.66675 10.9936 6.5075 8.07037 10 8.07037C13.4925 8.07037 16.3333 10.9936 16.3333 14.587C16.3333 14.9665 16.0252 15.2745 15.6458 15.2745C15.2662 15.2745 14.9583 14.9665 14.9583 14.587C14.9583 11.7517 12.7344 9.44537 10 9.44537C7.26558 9.44537 5.04175 11.7517 5.04175 14.587C5.04175 17.49 8.284 20.7955 8.317 20.8285C8.58466 21.098 8.58283 21.5335 8.31242 21.8011C8.17858 21.934 8.0035 22 7.82841 22Z" fill="#137CDF"/>
<path d="M12.1716 22C10.5179 22 6.68442 18.854 6.31317 15.3505C6.18209 14.1121 6.57625 12.8453 7.36642 11.9616C8.05392 11.1934 8.9825 10.7672 9.98075 10.7617H10C10.9735 10.7617 11.8938 11.1439 12.5942 11.8397C13.3257 12.5666 13.7281 13.5429 13.7281 14.5879V15.0361C13.7281 16.1407 14.5879 17.039 15.6458 17.039C16.7036 17.039 17.5643 16.1407 17.5643 15.0361V14.8794C17.5643 10.5985 14.4633 7.03728 10.5042 6.77328C8.43984 6.63303 6.45984 7.34619 4.93175 8.77436C3.34592 10.2575 2.43659 12.3769 2.43659 14.5879C2.43659 16.4065 3.05259 18.1784 4.17092 19.5773C4.40742 19.8743 4.35975 20.306 4.06275 20.5434C3.76667 20.7809 3.334 20.7323 3.09567 20.4353C1.78392 18.7935 1.06067 16.7164 1.06067 14.5869C1.06067 11.9964 2.1295 9.51136 3.99125 7.76969C5.79984 6.07753 8.14467 5.23603 10.594 5.40011C15.2727 5.71269 18.9384 9.87619 18.9384 14.8784V15.0352C18.9384 16.8979 17.4608 18.4131 15.6448 18.4131C13.8289 18.4131 12.3522 16.8979 12.3522 15.0352V14.5869C12.3522 13.9104 12.0937 13.2816 11.6243 12.8141C11.1843 12.3759 10.6078 12.1358 10 12.1358C9.99542 12.1358 9.99175 12.1358 9.98717 12.1358C9.21259 12.1394 8.691 12.5419 8.39034 12.8783C7.85409 13.4769 7.58825 14.3477 7.679 15.2057C7.98242 18.0639 11.2668 20.6259 12.1707 20.6259C12.5502 20.6259 12.8582 20.9339 12.8582 21.3134C12.8582 21.6929 12.5511 22 12.1716 22Z" fill="#7A7A9D"/>
<path d="M14.7227 20.6553C12.2623 20.6553 9.25842 17.6486 9.25842 14.1387C9.25842 13.7592 9.56642 13.4512 9.94592 13.4512C10.3254 13.4512 10.6334 13.7592 10.6334 14.1387C10.6334 16.8593 12.9205 19.2803 14.7227 19.2803C15.1022 19.2803 15.4102 19.5883 15.4102 19.9678C15.4102 20.3473 15.1022 20.6553 14.7227 20.6553Z" fill="#137CDF"/>
</svg>
