<svg width="24" height="24" viewBox="0 0 24 24" fill="none" xmlns="http://www.w3.org/2000/svg">
<path d="M23.0543 5.41614H8.8676C8.34547 5.41614 7.92188 4.96459 7.92188 4.40842C7.92188 3.85206 8.34547 3.40051 8.8676 3.40051H23.0543C23.5764 3.40051 24 3.85206 24 4.40842C24 4.96459 23.5764 5.41614 23.0543 5.41614Z" fill="#7A7A9D"/>
<path d="M23.0543 13.4318H8.8676C8.34547 13.4318 7.92188 12.9802 7.92188 12.4239C7.92188 11.8677 8.34547 11.4161 8.8676 11.4161H23.0543C23.5764 11.4161 24 11.8677 24 12.4239C24 12.9802 23.5764 13.4318 23.0543 13.4318Z" fill="#7A7A9D"/>
<path d="M23.0543 21.4005H8.8676C8.34547 21.4005 7.92188 20.9596 7.92188 20.4161C7.92188 19.8727 8.34547 19.4318 8.8676 19.4318H23.0543C23.5764 19.4318 24 19.8727 24 20.4161C24 20.9596 23.5764 21.4005 23.0543 21.4005Z" fill="#7A7A9D"/>
<path d="M2.25038 6.68064C2.05837 6.68064 1.86637 6.60714 1.71937 6.46164L0.219375 4.96164C-0.073125 4.66914 -0.073125 4.19364 0.219375 3.90114C0.511875 3.60864 0.987375 3.60864 1.27988 3.90114L2.25038 4.87014L4.71937 2.40114C5.01187 2.10864 5.48737 2.10864 5.77987 2.40114C6.07237 2.69364 6.07237 3.16914 5.77987 3.46164L2.77988 6.46164C2.63438 6.60714 2.44237 6.68064 2.25038 6.68064Z" fill="#137CDF"/>
<path d="M2.25038 14.6963C2.05837 14.6963 1.86637 14.6228 1.71937 14.4773L0.219375 12.9773C-0.073125 12.6848 -0.073125 12.2093 0.219375 11.9168C0.511875 11.6243 0.987375 11.6243 1.27988 11.9168L2.25038 12.8858L4.71937 10.4168C5.01187 10.1243 5.48737 10.1243 5.77987 10.4168C6.07237 10.7093 6.07237 11.1848 5.77987 11.4773L2.77988 14.4773C2.63438 14.6228 2.44237 14.6963 2.25038 14.6963Z" fill="#137CDF"/>
<path d="M2.25038 22.665C2.05837 22.665 1.86637 22.5915 1.71937 22.446L0.219375 20.946C-0.073125 20.6535 -0.073125 20.178 0.219375 19.8855C0.511875 19.593 0.987375 19.593 1.27988 19.8855L2.25038 20.8545L4.71937 18.3855C5.01187 18.093 5.48737 18.093 5.77987 18.3855C6.07237 18.678 6.07237 19.1535 5.77987 19.446L2.77988 22.446C2.63438 22.5915 2.44237 22.665 2.25038 22.665Z" fill="#137CDF"/>
</svg>
