<svg width="22" height="22" viewBox="0 0 22 22" fill="none" xmlns="http://www.w3.org/2000/svg">
<path d="M7.73623 9.91164H1.29412C0.57847 9.91164 0 9.33188 0 8.61752V1.29412C0 0.579764 0.57847 0 1.29412 0H7.73623C8.45188 0 9.03035 0.579764 9.03035 1.29412V8.61752C9.03035 9.33188 8.45058 9.91164 7.73623 9.91164ZM2.58823 7.32341H6.44211V2.58823H2.58823V7.32341Z" fill="#137CDF"/>
<path d="M20.7059 22H14.2353C13.5196 22 12.9412 21.4202 12.9412 20.7059V15.9409C12.9412 15.2266 13.5196 14.6468 14.2353 14.6468C14.9509 14.6468 15.5294 15.2266 15.5294 15.9409V19.4117H19.4117V15.5294H17.8821C17.1665 15.5294 16.588 14.9496 16.588 14.2353C16.588 13.5209 17.1665 12.9412 17.8821 12.9412H20.7059C21.4215 12.9412 22 13.5209 22 14.2353V20.7059C22 21.4202 21.4215 22 20.7059 22Z" fill="#7A7A9D"/>
<path d="M20.7058 7.88246H15.4116C14.696 7.88246 14.1175 7.3027 14.1175 6.58835V1.29412C14.1175 0.579764 14.696 0 15.4116 0H20.7058C21.4215 0 22 0.579764 22 1.29412V6.58835C22 7.3027 21.4215 7.88246 20.7058 7.88246ZM16.7057 5.29423H19.4117V2.58823H16.7057V5.29423Z" fill="#137CDF"/>
<path d="M11.6186 13.7643H1.29412C0.57847 13.7643 0 13.1845 0 12.4702C0 11.7558 0.57847 11.176 1.29412 11.176H10.3245V2.47051C10.3245 1.75616 10.9029 1.17639 11.6186 1.17639C12.3342 1.17639 12.9127 1.75616 12.9127 2.47051V12.4702C12.9127 13.1845 12.3329 13.7643 11.6186 13.7643Z" fill="#7A7A9D"/>
<path d="M15.2059 13.4406C14.4902 13.4406 13.9117 12.8609 13.9117 12.1465V10.3826C13.9117 9.66827 14.4902 9.0885 15.2059 9.0885H20.5764C21.2921 9.0885 21.8706 9.66827 21.8706 10.3826C21.8706 11.097 21.2921 11.6767 20.5764 11.6767L16.5 11.6767V12.1465C16.5 12.8609 15.9215 13.4406 15.2059 13.4406Z" fill="#137CDF"/>
<path d="M11.0284 20.319C10.3128 20.319 9.73431 19.7392 9.73431 19.0249V16.0846C9.73431 15.3703 10.3128 14.7905 11.0284 14.7905C11.7441 14.7905 12.3226 15.3703 12.3226 16.0846V19.0249C12.3226 19.7392 11.7441 20.319 11.0284 20.319Z" fill="#137CDF"/>
<path d="M7.7647 21.9999H1.29412C0.57847 21.9999 0 21.4202 0 20.7058V16.0004C0 15.2861 0.57847 14.7063 1.29412 14.7063H7.7647C8.48035 14.7063 9.05882 15.2861 9.05882 16.0004V20.7058C9.05882 21.4202 8.48035 21.9999 7.7647 21.9999ZM2.58823 19.4117H6.47059V17.2945H2.58823V19.4117Z" fill="#137CDF"/>
</svg>
