<svg width="22" height="22" viewBox="0 0 22 22" fill="none" xmlns="http://www.w3.org/2000/svg">
<path d="M5.02873 16.0293C4.70691 16.0293 4.3851 15.9061 4.13996 15.661L0.368646 11.8897C-0.122882 11.3982 -0.122882 10.6037 0.368646 10.1121L4.13996 6.34081C4.63149 5.84929 5.42598 5.84929 5.91751 6.34081C6.40903 6.83234 6.40903 7.62683 5.91751 8.11836L3.03497 11.0009L5.91751 13.8835C6.40903 14.375 6.40903 15.1695 5.91751 15.661C5.67237 15.9061 5.35055 16.0293 5.02873 16.0293Z" fill="#137CDF"/>
<path d="M9.07415 17.5493C8.40788 17.3532 8.02698 16.6543 8.22309 15.988L11.3659 5.30261C11.5632 4.63634 12.2622 4.25544 12.9272 4.45155C13.5934 4.64765 13.9743 5.3466 13.7782 6.01287L10.6355 16.6983C10.4381 17.3658 9.7379 17.7467 9.07415 17.5493Z" fill="#137CDF"/>
<path d="M16.9712 16.0293C16.6494 16.0293 16.3276 15.9061 16.0825 15.661C15.5909 15.1695 15.5909 14.375 16.0825 13.8835L18.965 11.0009L16.0825 8.11836C15.5909 7.62683 15.5909 6.83234 16.0825 6.34081C16.574 5.84929 17.3685 5.84929 17.86 6.34081L21.6313 10.1121C22.1229 10.6037 22.1229 11.3982 21.6313 11.8897L17.86 15.661C17.6149 15.9061 17.293 16.0293 16.9712 16.0293Z" fill="#137CDF"/>
</svg>
