<svg width="22" height="22" viewBox="0 0 22 22" fill="none" xmlns="http://www.w3.org/2000/svg">
<g clip-path="url(#clip0)">
<path d="M17.4017 12.8332H17.3888C16.7028 12.8565 16.0356 12.6059 15.5347 12.1366L9.92632 6.52822C9.43654 6.06572 9.16154 5.42007 9.16742 4.74645C9.16467 3.49304 8.63992 2.29742 7.71926 1.44688C6.90145 0.544004 5.74587 0.0206694 4.52782 0.00146484C3.50207 0.0170175 2.51198 0.380228 1.71952 1.03168C1.52275 1.19086 1.49225 1.4794 1.65138 1.67617C1.68532 1.7181 1.72635 1.75372 1.77267 1.78139L4.57181 3.46142C4.48958 4.30543 3.98364 5.04964 3.22908 5.43657L0.7214 3.93161C0.573564 3.85157 0.395352 3.85157 0.247558 3.93161C0.108572 4.00731 0.018478 4.14939 0.00924093 4.30741C-0.0713582 5.57049 0.378038 6.81002 1.24933 7.72797C2.1168 8.64459 3.32261 9.16483 4.58466 9.16694C4.93825 9.16432 5.29016 9.11783 5.63227 9.02855L12.0711 15.4691C12.5631 15.9323 12.8395 16.5798 12.8336 17.2555C12.8364 18.4987 13.3545 19.685 14.2643 20.5322C15.0681 21.4343 16.2085 21.9649 17.4163 21.9986H17.4227C18.3708 21.9964 19.2944 21.6977 20.0642 21.1444C20.2704 20.9975 20.3184 20.7114 20.1715 20.5052C20.1349 20.4538 20.0881 20.4106 20.034 20.3781L16.9681 18.5386C17.0504 17.6946 17.5563 16.9504 18.3109 16.5635L21.2511 18.3269C21.4683 18.4569 21.7497 18.3863 21.8797 18.1691C21.9124 18.1145 21.9334 18.0537 21.9413 17.9905L21.9569 17.8787C21.9813 17.7256 21.9954 17.5709 21.999 17.4159C21.9945 14.8811 19.9365 12.8296 17.4017 12.8332Z" fill="#137CDF"/>
<path d="M21.7342 3.92246C21.5908 3.84341 21.416 3.84689 21.2759 3.93161L18.7719 5.43661C18.0173 5.04969 17.5114 4.30548 17.4292 3.46146L20.2292 1.78143C20.4465 1.65164 20.5174 1.37027 20.3876 1.15296C20.36 1.10665 20.3244 1.06558 20.2824 1.03168C19.4897 0.379971 18.4992 0.0167597 17.4731 0.00146484H17.4255C16.2241 0.0302502 15.0876 0.552769 14.2836 1.44593C13.3616 2.29647 12.8361 3.49296 12.8336 4.74735C12.8385 5.42106 12.5625 6.06641 12.0719 6.52822L6.46631 12.1366C5.95457 12.6064 5.27889 12.8565 4.58465 12.8331C2.05493 12.8362 0.00494248 14.8862 0.00189209 17.4159C0.00489951 17.5712 0.018347 17.7262 0.0422345 17.8797L0.0578302 17.9915C0.0891933 18.2427 0.31823 18.4208 0.569393 18.3894C0.632549 18.3815 0.693385 18.3605 0.747991 18.3279L3.68736 16.5635C4.44197 16.9504 4.94786 17.6946 5.03009 18.5386L1.96514 20.3782C1.74809 20.5084 1.67763 20.7899 1.80781 21.0069C1.84025 21.061 1.88351 21.1078 1.93489 21.1444C2.70449 21.6976 3.62773 21.9962 4.57546 21.9987H4.58461C5.79338 21.9657 6.93491 21.435 7.73935 20.5322C8.64841 19.6844 9.16543 18.4977 9.16732 17.2546C9.16225 16.5785 9.43966 15.931 9.93262 15.4683L16.3714 9.02859C16.7126 9.11766 17.0636 9.16414 17.4163 9.16698C18.6783 9.16483 19.8841 8.64463 20.7516 7.72801C21.6221 6.81032 22.0711 5.5716 21.9908 4.3093C21.9748 4.1457 21.8786 4.00078 21.7342 3.92246Z" fill="#C5CDD5"/>
</g>
<defs>
<clipPath id="clip0">
<rect width="22" height="22" fill="white"/>
</clipPath>
</defs>
</svg>
